<mxfile host="app.diagrams.net" modified="2024-06-25T08:06:43.521Z" agent="Mozilla/5.0 (Windows NT 10.0; Win64; x64) AppleWebKit/537.36 (KHTML, like Gecko) Chrome/126.0.0.0 Safari/537.36" version="24.6.2" etag="S0xOnlFiNLCey9o1ZfG9" type="github">
  <diagram name="第 1 页" id="JrNUFQ9mRWOuIuQ09Ib_">
    <mxGraphModel>
      <root>
        <mxCell id="0" />
        <mxCell id="1" parent="0" />
      </root>
    </mxGraphModel>
  </diagram>
</mxfile>
